<?xml version="1.0" encoding="utf-8"?>
<svg viewBox="0 0 242.875 52.406" xmlns="http://www.w3.org/2000/svg">
  <defs>
    <style>
      .cls-1, .cls-3 {
        fill: #191a1f;
      }

      .cls-1, .cls-2, .cls-3 {
        fill-rule: evenodd;
      }

      .cls-2 {
        fill: #e84c21;
      }

      .cls-3 {
        opacity: 0.8;
      }
    </style>
  </defs>
  <path class="cls-2" d="M 37.314 0.196 C 32.489 0.274 27.591 0.835 22.802 1.859 C 17.946 2.898 13.219 4.395 8.606 6.354 C 6.651 7.185 4.382 8.283 2.88 9.124 C 2.408 9.389 2.278 9.467 1.754 9.794 C 1.072 10.221 0.731 10.418 0.504 10.519 C 0.478 10.53 0.455 10.543 0.453 10.55 C 0.451 10.557 0.455 10.665 0.462 10.793 C 0.947 19.704 2.786 28.585 6.048 37.779 C 6.504 39.065 6.885 40.081 7.551 41.787 C 7.7 42.165 7.922 42.742 8.045 43.067 C 8.428 44.066 8.542 44.354 8.68 44.655 C 8.959 45.267 9.166 45.494 9.541 45.599 C 9.701 45.642 9.908 45.664 10.433 45.691 C 10.614 45.701 10.86 45.714 10.979 45.724 C 11.097 45.732 11.196 45.737 11.198 45.735 C 11.199 45.733 10.832 44.865 10.383 43.806 C 9.934 42.745 9.512 41.744 9.444 41.579 C 7.436 36.729 5.681 31.172 4.4 25.607 C 4.045 24.062 3.752 22.639 3.462 21.046 C 2.854 17.715 2.485 14.995 2.375 13.076 C 2.347 12.58 2.329 11.974 2.339 11.775 L 2.344 11.656 L 2.46 11.602 C 2.866 11.407 3.239 11.21 4.124 10.719 C 5.468 9.977 5.721 9.844 6.704 9.379 C 10.624 7.523 14.748 5.976 18.445 4.978 C 24.699 3.288 30.186 2.428 35.903 2.242 C 37.149 2.2 38.801 2.197 40.085 2.231 C 48.941 2.471 57.4 4.312 65.72 7.816 C 66.843 8.288 68.013 8.819 69.249 9.419 C 69.919 9.745 70.1 9.838 71.122 10.387 C 72.253 10.996 72.679 11.214 73.141 11.425 L 73.281 11.488 L 73.281 11.561 C 73.281 11.653 73.269 11.906 73.253 12.143 C 73.11 14.336 72.433 18.359 71.346 23.493 C 70.81 26.029 70.165 28.833 69.71 30.617 C 69.67 30.778 69.634 30.911 69.634 30.913 C 69.633 30.915 69.585 30.877 69.53 30.831 C 69.321 30.65 68.961 30.381 68.825 30.299 C 68.786 30.276 68.664 30.213 68.555 30.159 C 68.444 30.106 68.313 30.038 68.261 30.01 L 68.168 29.956 L 68.173 29.902 C 68.18 29.818 68.23 29.527 68.272 29.305 C 68.358 28.87 68.459 28.434 68.724 27.384 C 68.928 26.578 69 26.276 69.088 25.866 C 69.963 21.782 70.659 17.529 71.039 13.964 C 71.07 13.678 71.138 12.999 71.138 12.982 C 71.138 12.978 71.105 12.962 71.065 12.946 C 70.857 12.866 70.538 12.697 70.035 12.401 C 69.5 12.087 69.302 11.981 68.428 11.534 C 68.167 11.401 67.82 11.22 67.656 11.135 C 65.282 9.891 62.942 8.858 60.351 7.919 C 53.936 5.59 46.906 4.223 40.226 4.009 C 39.578 3.988 39.331 3.984 38.507 3.98 C 37.139 3.975 36.034 4.006 34.687 4.081 C 26.861 4.527 18.961 6.392 11.67 9.521 C 10.199 10.15 9.001 10.724 7.395 11.567 C 6.305 12.141 6.194 12.201 5.62 12.547 C 5.208 12.795 4.788 13.03 4.652 13.088 L 4.562 13.127 L 4.567 13.558 C 4.595 15.902 4.856 18.503 5.358 21.421 C 6.234 26.529 7.844 32.497 9.942 38.404 C 10.395 39.681 10.743 40.534 11.782 42.928 C 12.51 44.601 12.741 45.152 12.961 45.757 L 13.033 45.956 L 13.063 45.964 C 13.081 45.967 15.029 46.205 17.396 46.493 C 19.762 46.782 22.984 47.175 24.556 47.368 L 27.412 47.716 L 27.448 47.879 C 27.625 48.653 28.001 49.545 28.51 50.383 C 28.75 50.779 28.957 51.065 29.187 51.317 C 29.713 51.893 30.225 52.139 31.06 52.215 C 31.147 52.222 31.328 52.225 31.7 52.223 C 31.985 52.221 33.054 52.219 34.075 52.215 C 36.224 52.211 36.884 52.199 37.478 52.159 C 37.816 52.136 37.979 52.111 38.077 52.072 C 38.283 51.985 38.595 51.735 38.89 51.418 C 39.299 50.98 39.616 50.513 39.846 50.015 C 40.006 49.665 40.097 49.351 40.139 49.01 L 40.144 48.97 L 47.73 48.954 C 51.901 48.946 56.66 48.935 58.304 48.933 L 61.294 48.928 L 61.377 49.028 C 61.53 49.209 61.94 49.651 62.062 49.767 C 62.633 50.302 63.073 50.521 63.746 50.603 C 64.015 50.636 64.06 50.636 65.403 50.635 C 66.269 50.634 66.798 50.635 66.961 50.641 C 67.096 50.648 67.335 50.657 67.491 50.664 C 68.128 50.691 68.364 50.687 68.641 50.648 C 69.001 50.596 69.344 50.483 69.74 50.279 C 70.275 50.007 70.95 49.538 71.124 49.321 C 71.228 49.188 71.285 49.093 71.452 48.756 C 71.575 48.51 71.645 48.383 71.716 48.281 C 71.808 48.15 71.797 48.159 71.895 48.144 C 71.943 48.137 72.137 48.115 72.327 48.096 C 72.822 48.044 73.029 48.013 73.209 47.959 C 73.301 47.933 73.438 47.874 73.463 47.851 C 73.643 47.696 73.941 44.812 74.038 42.27 C 74.064 41.617 74.067 41.436 74.071 40.705 C 74.075 39.98 74.07 39.549 74.05 39.122 C 73.997 38.006 73.886 37.269 73.705 36.831 C 73.628 36.643 72.725 34.617 72.683 34.534 C 72.648 34.467 72.387 34.086 72.381 34.094 C 72.38 34.095 72.387 34.191 72.396 34.311 C 72.435 34.742 72.444 34.909 72.444 35.242 C 72.445 35.568 72.438 35.678 72.409 35.897 C 72.394 36.01 72.367 36.167 72.362 36.173 C 72.342 36.189 72.229 36.256 72.168 36.285 C 71.897 36.416 71.529 36.503 71.063 36.543 C 70.909 36.557 70.484 36.558 70.329 36.545 C 69.914 36.512 69.555 36.43 69.335 36.322 C 69.288 36.3 69.277 36.29 69.273 36.271 C 69.261 36.209 69.252 36.103 69.248 35.952 C 69.229 35.318 69.395 34.281 69.595 33.773 C 69.706 33.488 69.861 33.325 70.181 33.156 C 70.326 33.079 70.473 33.019 70.851 32.883 C 71.169 32.768 71.368 32.686 71.485 32.621 L 71.553 32.583 L 71.372 32.354 C 71.271 32.229 71.189 32.123 71.19 32.12 C 71.19 32.116 71.275 31.772 71.38 31.355 C 71.749 29.868 72.026 28.728 72.306 27.536 C 73.975 20.455 74.914 15.03 75.219 10.703 C 75.232 10.525 75.24 10.377 75.237 10.374 C 75.234 10.371 75.16 10.334 75.075 10.291 C 74.7 10.108 74.158 9.813 73.371 9.369 C 72.187 8.7 71.898 8.547 71.087 8.152 C 63.499 4.463 56.713 2.21 49.749 1.071 C 45.753 0.415 41.618 0.124 37.314 0.196 Z M 39.539 5.234 C 45.183 5.344 50.524 6.16 55.711 7.705 C 57.547 8.252 59.082 8.769 60.872 9.443 C 62.192 9.94 63.857 10.644 65.053 11.211 C 65.833 11.579 66.271 11.803 67.848 12.636 C 68.608 13.036 69.302 13.395 69.77 13.626 L 69.905 13.695 L 69.905 13.88 C 69.905 14.856 69.661 16.702 69.143 19.662 C 69.06 20.138 68.708 22.101 68.609 22.642 C 68.164 25.073 67.725 27.108 67.259 28.898 C 67.098 29.513 67.075 29.597 67.061 29.595 C 67.045 29.592 62.241 27.953 61.983 27.863 C 60.235 27.25 58.615 26.787 57.501 26.587 C 57.365 26.562 57.252 26.542 57.251 26.54 C 57.249 26.539 57.261 26.496 57.275 26.445 C 57.314 26.316 57.348 26.164 57.369 26.032 C 57.383 25.939 57.387 25.888 57.387 25.725 C 57.387 25.516 57.377 25.44 57.331 25.289 C 57.158 24.721 56.609 24.375 55.616 24.208 C 55.123 24.126 54.67 24.084 54.125 24.07 C 53.745 24.06 53.662 24.048 53.515 23.976 C 53.348 23.893 53.192 23.77 52.586 23.24 C 52.209 22.91 52.06 22.785 51.776 22.556 C 50.56 21.571 48.371 19.974 47.233 19.241 C 45.529 18.142 44.466 17.647 42.903 17.223 C 41.348 16.803 38.626 16.328 36.061 16.032 C 32.93 15.67 29.785 15.508 26.684 15.546 C 22.961 15.592 19.669 15.924 16.744 16.547 C 14.593 17.005 13.121 17.56 11.747 18.428 C 10.924 18.947 10.073 19.626 9.15 20.503 C 8.579 21.044 6.813 22.704 6.811 22.702 C 6.796 22.697 6.683 22.235 6.618 21.918 C 6.223 19.988 5.745 15.816 5.726 14.1 L 5.723 13.91 L 6.138 13.634 C 6.536 13.371 6.573 13.349 6.982 13.122 C 8.492 12.291 10.388 11.371 12.187 10.6 C 18.68 7.816 25.673 6.069 32.768 5.463 C 34.334 5.329 35.964 5.247 37.561 5.227 C 37.937 5.222 39.128 5.226 39.539 5.234 Z M 35.017 17.137 C 36.719 17.187 37.915 17.255 39.354 17.382 C 40.597 17.493 42.034 17.668 43.182 17.848 C 44.366 18.034 45.055 18.247 45.769 18.647 C 46.116 18.841 45.834 18.612 49.643 21.796 C 52.667 24.322 53.15 24.729 53.325 24.894 C 53.765 25.314 53.852 25.39 54.043 25.529 C 54.207 25.648 54.259 25.696 54.313 25.775 C 54.35 25.827 54.422 25.971 54.415 25.977 C 54.405 25.988 54.138 26.002 53.87 26.007 C 52.94 26.024 51.663 25.943 48.174 25.645 C 45.823 25.443 45.266 25.412 43.547 25.388 C 40.95 25.352 37.714 25.403 32.077 25.566 C 30.654 25.607 30.767 25.603 30.004 25.666 C 29.239 25.73 29.095 25.739 28.716 25.748 C 28.232 25.758 27.843 25.727 27.52 25.65 C 27.098 25.55 26.8 25.356 26.656 25.09 C 26.431 24.676 25.872 23.259 24.979 20.849 C 24.575 19.755 23.9 17.887 23.907 17.879 C 23.923 17.862 24.065 17.799 24.164 17.767 C 25.106 17.463 27.959 17.234 32.042 17.136 C 32.487 17.127 34.646 17.128 35.017 17.137 Z M 19.199 17.705 C 19.571 17.739 19.862 17.788 20.144 17.865 C 21.04 18.106 21.678 18.582 22.081 19.313 C 22.142 19.42 22.317 19.798 22.471 20.149 C 22.927 21.187 23.151 21.833 23.233 22.356 C 23.249 22.446 23.251 22.497 23.252 22.642 C 23.252 22.8 23.251 22.827 23.234 22.892 C 23.19 23.074 23.098 23.199 22.95 23.279 C 22.828 23.346 22.712 23.38 22.503 23.405 C 22.347 23.424 21.903 23.418 21.428 23.393 C 20.667 23.35 20.303 23.363 19.759 23.448 C 18.687 23.618 17.804 24.011 17.423 24.49 C 17.321 24.617 17.243 24.769 17.212 24.903 C 17.175 25.056 17.184 25.247 17.234 25.41 C 17.285 25.571 17.285 25.573 17.543 25.888 C 17.675 26.047 17.795 26.19 17.811 26.203 C 17.836 26.222 17.876 26.281 17.907 26.337 C 17.912 26.347 17.887 26.348 17.737 26.343 C 17.562 26.339 17.224 26.33 16.478 26.315 C 14.975 26.284 14.15 26.245 13.603 26.179 C 13.213 26.132 13.045 26.079 12.958 25.973 C 12.867 25.864 12.858 25.722 12.914 25.314 C 13.005 24.665 13.215 23.698 13.459 22.796 C 13.945 21.007 14.516 19.478 15.031 18.587 C 15.177 18.336 15.295 18.215 15.496 18.106 C 15.688 18.004 15.879 17.954 16.273 17.899 C 17.218 17.769 17.632 17.722 18.076 17.696 C 18.284 17.683 19.028 17.689 19.199 17.705 Z M 14.13 19.775 C 13.625 21.199 13.567 21.369 13.404 21.892 C 13.119 22.814 12.93 23.511 12.666 24.62 C 12.544 25.138 12.509 25.272 12.463 25.424 C 12.362 25.743 12.256 25.876 12.061 25.924 C 11.939 25.955 11.727 25.956 11.265 25.931 C 11.104 25.922 10.628 25.912 9.735 25.9 C 8.548 25.884 7.872 25.857 7.563 25.814 C 7.451 25.798 7.404 25.777 7.345 25.709 C 7.129 25.469 7.149 24.889 7.402 24.056 C 7.53 23.639 7.728 23.147 7.874 22.886 C 8.213 22.283 9.628 21.079 11.269 19.995 C 12.65 19.084 13.853 18.473 14.546 18.329 C 14.598 18.32 14.641 18.313 14.643 18.316 C 14.645 18.32 14.414 18.976 14.13 19.775 Z M 7.976 26.509 C 9.058 26.54 9.691 26.561 10.421 26.593 C 13.569 26.727 16.565 26.951 19.745 27.291 C 20.048 27.322 21.578 27.502 23.145 27.687 C 24.711 27.874 26.778 28.118 27.738 28.234 C 29.832 28.481 30.048 28.509 30.376 28.582 C 30.76 28.664 31.025 28.765 31.225 28.909 C 31.306 28.965 31.324 28.98 31.397 29.059 C 31.534 29.207 31.606 29.372 31.626 29.596 C 31.639 29.741 31.642 29.735 31.533 29.792 C 31.417 29.851 31.333 29.89 30.915 30.075 C 30.373 30.316 30.137 30.435 29.753 30.667 C 29.06 31.086 28.656 31.437 27.961 32.222 C 27.58 32.653 27.501 32.759 27.303 33.091 C 27.244 33.19 27.169 33.316 27.137 33.369 C 27.067 33.484 26.915 33.709 26.911 33.704 C 26.904 33.696 26.993 33.327 27.063 33.077 C 27.199 32.588 27.219 32.461 27.182 32.305 C 27.147 32.149 27.051 32.046 26.852 31.939 C 26.636 31.826 26.408 31.761 25.64 31.592 C 22.389 30.879 16.446 29.987 8.762 29.06 C 8.378 29.013 8.063 28.975 8.062 28.973 C 8.059 28.969 7.509 26.518 7.509 26.509 C 7.509 26.498 7.642 26.498 7.976 26.509 Z M 40.853 32.604 C 41.996 32.635 43.193 32.718 44.814 32.879 C 45.045 32.902 45.53 32.948 45.889 32.979 C 47.064 33.085 47.47 33.139 47.99 33.253 C 49.402 33.562 50.239 34.207 50.647 35.296 C 50.693 35.417 50.765 35.657 50.785 35.755 L 50.799 35.823 L 50.772 35.847 C 50.288 36.303 49.199 36.593 47.585 36.697 C 47.08 36.73 46.927 36.734 46.058 36.736 C 45.089 36.737 44.741 36.729 43.754 36.676 C 42.8 36.626 42.274 36.585 41.866 36.529 C 40.918 36.401 40.167 36.145 39.482 35.712 C 39.121 35.485 38.918 35.317 38.637 35.013 C 38.185 34.526 37.785 33.916 37.522 33.32 C 37.423 33.097 37.307 32.758 37.323 32.741 C 37.33 32.736 37.554 32.711 37.831 32.684 C 38.73 32.603 39.755 32.576 40.853 32.604 Z M 57.776 32.991 C 58.145 32.997 59.083 33.004 59.86 33.007 C 60.637 33.01 61.604 33.016 62.007 33.019 C 62.411 33.023 63.227 33.027 63.82 33.027 C 65.152 33.032 65.441 33.04 65.897 33.088 C 66.71 33.175 67.253 33.371 67.504 33.668 C 67.583 33.764 67.632 33.859 67.682 34.018 C 67.858 34.576 67.869 35.376 67.71 35.97 C 67.582 36.45 67.358 36.824 67.049 37.077 C 66.869 37.223 66.664 37.326 66.42 37.394 C 65.973 37.518 65.327 37.611 64.602 37.653 C 64.13 37.68 63.949 37.684 62.655 37.688 C 61.823 37.69 61.212 37.698 61.05 37.704 C 60.728 37.717 60.314 37.735 59.844 37.759 C 58.338 37.836 57.612 37.841 56.854 37.783 C 55.277 37.664 54.296 37.214 53.771 36.371 C 53.633 36.149 53.267 35.397 53.102 34.995 C 52.778 34.21 52.732 33.761 52.947 33.517 C 53.043 33.407 53.166 33.337 53.396 33.265 C 53.536 33.22 54.094 33.085 54.224 33.064 C 54.473 33.023 54.937 32.992 55.483 32.979 C 55.76 32.973 57.137 32.978 57.776 32.991 Z M 30.909 35.147 C 31.266 35.19 31.598 35.351 31.931 35.642 C 32.029 35.727 32.219 35.933 32.314 36.052 C 32.996 36.921 33.528 38.352 33.82 40.111 C 33.926 40.757 33.996 41.42 34.036 42.202 C 34.05 42.466 34.054 43.263 34.045 43.568 C 33.984 45.339 33.697 46.871 33.178 48.174 C 33.108 48.355 32.931 48.734 32.846 48.897 C 32.388 49.757 31.858 50.326 31.278 50.573 C 30.901 50.738 30.51 50.752 30.13 50.618 C 29.551 50.417 29.001 49.864 28.533 49.015 C 28.022 48.083 27.663 46.933 27.457 45.571 C 27.086 43.103 27.271 40.273 27.941 38.202 C 28.328 37.007 28.846 36.134 29.471 35.622 C 29.783 35.368 30.134 35.208 30.5 35.153 C 30.595 35.138 30.807 35.135 30.909 35.147 Z M 70.875 41.992 C 71.724 42.059 72.175 42.251 72.344 42.623 C 72.411 42.773 72.438 42.918 72.471 43.313 C 72.491 43.54 72.503 43.625 72.539 43.827 C 72.575 44.031 72.579 44.078 72.563 44.139 C 72.542 44.22 72.49 44.279 72.367 44.364 C 71.959 44.643 70.204 44.892 67.255 45.089 C 64.783 45.254 61.419 45.387 58.133 45.449 C 57.27 45.465 53.784 45.473 52.806 45.461 C 49.51 45.422 46.92 45.355 42.21 45.19 C 41.92 45.18 41.694 45.168 41.691 45.164 C 41.687 45.159 41.679 45.111 41.674 45.059 C 41.611 44.425 41.998 43.75 42.727 43.222 C 43.061 42.981 43.454 42.785 43.754 42.709 C 44.588 42.506 47.47 42.35 52.606 42.235 C 55.922 42.162 59.948 42.11 65.975 42.066 C 68.179 42.049 68.807 42.039 69.265 42.014 C 69.455 42.003 69.697 41.991 69.803 41.987 C 70.045 41.977 70.718 41.98 70.875 41.992 Z"/>
  <path class="cls-3" d="M 102.538 9.083 Q 103.654 9.083 106.091 8.974 Q 108.527 8.866 110.514 8.866 Q 114.651 8.866 116.421 10.512 Q 118.19 12.159 118.19 15.099 Q 118.19 16.868 116.965 18.284 Q 115.74 19.699 113.753 20.407 Q 114.923 22.394 115.944 24.136 Q 116.965 25.878 117.428 26.722 Q 117.89 27.566 118.272 28.233 Q 118.653 28.899 118.83 29.144 Q 119.006 29.389 119.17 29.553 L 121.13 29.825 Q 121.239 30.233 121.13 30.832 L 116.502 30.832 L 112.392 23.374 Q 111.575 21.822 110.841 20.978 L 110.459 20.978 Q 109.071 20.978 107.656 20.815 L 107.656 29.634 L 110.133 29.907 Q 110.242 30.315 110.133 30.914 Q 108.418 30.832 106.268 30.832 Q 104.662 30.832 102.375 30.886 Q 102.212 30.396 102.375 29.907 L 104.634 29.58 Q 104.743 28.546 104.743 26.395 L 104.743 10.363 L 102.538 10.09 Q 102.43 9.682 102.538 9.083 Z M 107.656 13.602 L 107.656 19.699 Q 108.5 19.808 110.106 19.808 Q 111.494 19.808 112.487 19.359 Q 113.481 18.91 113.971 18.161 Q 114.461 17.413 114.679 16.623 Q 114.896 15.834 114.896 14.963 Q 114.896 12.622 113.726 11.315 Q 112.555 10.009 109.833 10.009 Q 108.826 10.009 107.819 10.199 Q 107.656 11.751 107.656 13.602 Z M 133.023 23.156 L 124.476 23.156 Q 124.231 30.097 128.641 30.097 Q 130.519 30.097 132.479 28.437 Q 132.887 28.682 133.105 29.28 Q 131.227 31.376 128.341 31.376 Q 121.7 31.376 121.7 23.564 Q 121.7 19.862 123.66 17.807 Q 125.619 15.752 128.233 15.752 Q 131.091 15.752 132.343 17.739 Q 133.595 19.726 133.595 22.911 Q 133.323 23.129 133.023 23.156 Z M 128.178 16.841 Q 126.763 16.841 125.769 18.311 Q 124.776 19.781 124.558 22.067 L 127.933 22.067 Q 129.947 22.067 130.818 21.822 Q 130.818 19.59 130.138 18.216 Q 129.457 16.841 128.178 16.841 Z M 146.903 21.114 Q 146.903 19.019 146.345 18.175 Q 145.787 17.331 144.481 17.331 Q 142.466 17.331 140.425 20.352 L 140.425 29.444 L 142.63 29.852 Q 142.738 30.288 142.63 30.941 Q 140.915 30.859 139.118 30.859 Q 137.866 30.859 135.58 30.914 Q 135.416 30.396 135.58 29.852 L 137.73 29.553 Q 137.839 28.056 137.839 26.096 L 137.839 18.637 Q 137.839 18.093 137.757 17.63 L 135.607 17.358 Q 135.498 16.95 135.607 16.324 Q 137.485 16.188 140.289 15.752 Q 140.534 16.024 140.561 16.297 Q 140.425 17.004 140.425 18.719 Q 142.575 15.752 145.27 15.752 Q 149.489 15.752 149.489 19.754 L 149.489 29.444 L 151.694 29.852 Q 151.803 30.288 151.694 30.941 Q 149.979 30.859 148.182 30.859 Q 146.93 30.859 144.644 30.914 Q 144.481 30.396 144.644 29.852 L 146.794 29.553 Q 146.903 28.056 146.903 26.096 Z M 157.274 13.03 L 157.274 16.923 L 161.112 16.923 Q 161.167 17.249 161.167 17.413 Q 161.167 17.658 161.112 17.984 L 157.274 18.556 L 157.274 26.041 Q 157.274 28.056 157.642 28.886 Q 158.009 29.716 158.799 29.716 Q 159.506 29.716 161.003 29.144 Q 161.276 29.389 161.385 30.07 Q 160.568 30.56 160.146 30.791 Q 159.724 31.023 159.084 31.199 Q 158.445 31.376 157.737 31.376 Q 156.376 31.376 155.519 30.328 Q 154.661 29.28 154.661 27.13 L 154.661 18.229 L 152.756 17.984 Q 152.701 17.712 152.701 17.521 Q 152.701 17.304 152.756 16.923 Q 153.518 16.787 154.076 16.446 Q 154.634 16.106 155.015 15.494 Q 155.396 14.881 155.6 14.405 Q 155.804 13.928 156.104 13.03 Q 156.349 12.949 156.703 12.949 Q 157.029 12.949 157.274 13.03 Z M 171.809 29.634 L 174.014 29.907 Q 174.123 30.315 174.014 30.914 Q 172.299 30.832 171.129 30.832 Q 170.476 30.832 168.189 30.886 Q 168.026 30.396 168.189 29.907 L 169.986 29.58 Q 170.421 28.927 171.074 27.157 L 178.097 8.376 L 179.05 8.376 L 186.944 29.634 L 189.148 29.907 Q 189.257 30.315 189.148 30.914 Q 187.434 30.832 185.31 30.832 Q 183.732 30.832 181.445 30.886 Q 181.282 30.396 181.445 29.907 L 183.704 29.58 L 181.309 22.857 L 174.232 22.857 Z M 177.852 12.486 L 177.825 12.486 Q 177.498 13.765 176.763 15.834 L 174.722 21.496 L 180.819 21.496 L 178.832 15.834 Q 178.26 14.173 177.852 12.486 Z M 214.269 26.803 Q 214.732 27.103 214.977 27.838 Q 211.193 31.376 207.301 31.376 Q 204.633 31.376 202.646 30.41 Q 200.659 29.444 199.353 27.851 Q 198.046 26.259 197.407 24.231 Q 196.767 22.203 196.767 20.08 Q 196.767 17.93 197.502 15.875 Q 198.237 13.82 199.652 12.2 Q 201.068 10.58 203.15 9.6 Q 205.232 8.621 207.9 8.621 Q 211.411 8.621 214.433 10.254 L 214.433 15.48 Q 213.943 15.562 213.562 15.562 Q 213.153 15.562 212.881 15.48 L 212.01 10.934 Q 210.35 9.845 207.573 9.845 Q 205.858 9.845 204.484 10.621 Q 203.109 11.397 202.143 12.717 Q 201.176 14.037 200.659 15.82 Q 200.142 17.603 200.142 19.617 Q 200.142 21.768 200.646 23.592 Q 201.149 25.415 202.075 26.749 Q 203 28.083 204.32 28.831 Q 205.641 29.58 207.274 29.58 Q 209.234 29.58 211.057 28.818 Q 212.881 28.056 214.269 26.803 Z M 219.714 27.212 Q 219.714 28.627 220.231 29.212 Q 220.749 29.798 221.865 29.798 Q 222.681 29.798 223.675 29.294 Q 224.668 28.791 225.512 27.838 L 225.512 23.592 Q 222.708 23.755 221.211 24.585 Q 219.714 25.415 219.714 27.212 Z M 225.512 22.612 L 225.512 21.223 Q 225.512 18.91 224.981 17.862 Q 224.451 16.814 223.226 16.814 Q 221.973 16.814 221.211 17.617 Q 220.449 18.42 220.177 20.352 Q 219.306 20.543 218.898 20.543 Q 217.836 20.543 217.646 19.781 Q 217.646 17.93 219.251 16.841 Q 220.857 15.752 223.253 15.752 Q 225.893 15.752 226.996 16.827 Q 228.098 17.903 228.098 20.679 L 228.098 28.355 Q 228.098 29.035 228.18 29.525 L 230.33 29.798 Q 230.439 30.206 230.33 30.832 Q 228.397 30.914 226.22 31.213 Q 226.002 30.995 225.948 30.669 L 225.811 28.791 Q 223.552 31.376 220.776 31.376 Q 219.061 31.376 218.095 30.396 Q 217.128 29.417 217.128 27.756 Q 217.128 25.252 219.401 23.973 Q 221.674 22.693 225.512 22.612 Z M 236.371 16.297 L 236.317 19.1 Q 236.997 17.848 238.208 16.8 Q 239.42 15.752 240.508 15.752 Q 241.352 15.752 242.006 15.943 Q 242.223 16.297 242.223 16.868 Q 242.223 17.766 241.842 18.665 Q 240.862 18.393 239.964 18.393 Q 237.732 18.393 236.289 20.57 L 236.235 25.334 L 236.235 29.444 L 239.256 29.852 Q 239.365 30.288 239.256 30.941 Q 237.541 30.859 235.337 30.859 Q 233.676 30.859 231.39 30.914 Q 231.226 30.396 231.39 29.852 L 233.54 29.553 Q 233.649 28.056 233.649 26.096 L 233.649 18.637 Q 233.649 18.093 233.567 17.63 L 231.417 17.358 Q 231.308 16.95 231.417 16.324 Q 233.295 16.188 236.099 15.752 Q 236.344 16.024 236.371 16.297 Z" transform="matrix(1.042233943939209, 0, 0, 1.1021339893341064, -19.770322799682617, 3.908539056777954)" style="line-height: 43.5519px;"/>
</svg>