<svg id="Shape_logo" data-name="Shape logo" xmlns="http://www.w3.org/2000/svg" width="159.937" height="34.531" viewBox="0 0 159.937 34.531">
  <defs>
    <style>
      .cls-1 {
        fill: #191a1f;
      }

      .cls-1, .cls-2, .cls-3 {
        fill-rule: evenodd;
      }

      .cls-2 {
        fill: #2163e8;
      }

      .cls-3 {
        fill: #fff;
        opacity: 0.8;
      }
    </style>
  </defs>
  <path id="write" class="cls-1" d="M 55.395 12.966 Q 58.643 12.966 59.89 14.967 Q 61.137 16.968 61.137 20.274 Q 61.137 23.58 59.875 25.581 Q 58.614 27.582 55.395 27.582 Q 53.191 27.582 51.48 26.132 L 50.436 27.234 L 48.783 27.234 L 48.783 8.964 L 52.408 8.471 L 52.408 13.633 Q 53.887 12.966 55.395 12.966 Z M 54.38 25.523 Q 56.062 25.523 56.787 24.145 Q 57.512 22.768 57.512 20.274 Q 57.512 17.577 56.787 16.17 Q 56.062 14.764 54.38 14.764 Q 53.394 14.764 52.408 15.17 L 52.408 24.943 Q 53.278 25.523 54.38 25.523 Z M 76.361 13.314 L 76.361 27.234 L 74.012 27.234 L 73.055 25.668 Q 71.286 27.582 68.763 27.582 Q 64.297 27.582 64.297 23.116 L 64.297 13.314 L 67.922 13.314 L 67.922 22.71 Q 67.922 24.189 68.429 24.943 Q 68.937 25.697 70.097 25.697 Q 71.605 25.697 72.736 24.276 L 72.736 13.314 Z M 88.337 12.966 Q 90.541 12.966 91.701 14.126 Q 92.861 15.286 92.861 17.432 L 92.861 27.234 L 89.236 27.234 L 89.236 17.838 Q 89.236 16.33 88.772 15.663 Q 88.308 14.996 87.293 14.996 Q 85.814 14.996 84.393 16.04 L 84.393 27.234 L 80.768 27.234 L 80.768 13.314 L 82.363 13.314 L 83.668 14.648 Q 84.712 13.894 85.973 13.43 Q 87.235 12.966 88.337 12.966 Z M 108.231 20.68 L 99.618 20.68 Q 99.618 23.522 100.285 24.653 Q 100.952 25.784 102.46 25.784 Q 104.896 25.784 105.07 23.116 L 108.057 23.232 Q 107.854 25.262 106.549 26.422 Q 105.244 27.582 102.315 27.582 Q 98.951 27.582 97.472 25.769 Q 95.993 23.957 95.993 20.274 Q 95.993 16.968 97.37 14.967 Q 98.748 12.966 102.257 12.966 Q 105.65 12.966 106.94 14.996 Q 108.231 17.026 108.231 20.274 Z M 102.228 14.764 Q 100.981 14.764 100.386 15.706 Q 99.792 16.649 99.676 18.882 L 104.722 18.882 Q 104.635 16.823 104.069 15.793 Q 103.504 14.764 102.228 14.764 Z M 122.759 13.314 L 115.886 33.121 L 113.073 32.773 L 115.741 27.843 L 109.593 13.314 L 113.218 13.314 L 117.365 23.493 L 120.671 13.314 Z M 136.446 8.471 L 136.446 27.234 L 134.097 27.234 L 133.198 25.784 Q 131.574 27.582 129.312 27.582 Q 126.702 27.582 125.383 25.798 Q 124.063 24.015 124.063 20.506 Q 124.063 12.966 129.805 12.966 Q 131.371 12.966 132.821 13.778 L 132.821 8.964 Z M 130.356 25.784 Q 131.835 25.784 132.821 24.479 L 132.821 15.576 Q 131.951 14.996 130.82 14.996 Q 127.688 14.996 127.688 20.506 Q 127.688 25.784 130.356 25.784 Z M 142.595 11.748 Q 141.696 11.748 141.058 11.11 Q 140.42 10.472 140.42 9.602 Q 140.42 8.674 141.058 8.036 Q 141.696 7.398 142.595 7.398 Q 143.494 7.398 144.146 8.036 Q 144.799 8.674 144.799 9.602 Q 144.799 10.501 144.146 11.124 Q 143.494 11.748 142.595 11.748 Z M 144.393 27.234 L 140.797 27.234 L 140.797 13.314 L 144.393 13.314 Z"/>
  <path id="Shape" class="cls-2" d="M 8.981 28.197 L 8.718 28.197 L 4.032 28.105 C 2.193 28.15 0.56 26.934 0.076 25.159 C 0.009 24.871 -0.022 24.576 -0.015 24.281 C -0.003 17.594 0.014 10.732 0.036 3.696 C -0.034 2.091 1.001 0.646 2.543 0.196 C 3.098 0.008 3.689 -0.048 4.27 0.031 C 14.729 1.174 24.505 2.24 33.663 3.242 C 35.298 3.446 36.58 4.745 36.763 6.382 C 36.798 6.661 36.803 6.942 36.78 7.222 C 36.351 13.407 35.928 19.454 35.512 25.363 C 35.458 26.681 34.645 27.849 33.427 28.357 C 32.979 28.556 32.491 28.648 32.002 28.625 C 26.931 28.529 21.67 28.429 16.22 28.325 C 16.069 28.314 15.922 28.373 15.82 28.484 C 13.897 30.404 11.964 32.331 10.02 34.266 C 9.735 34.648 9.148 34.597 8.932 34.173 C 8.888 34.052 8.871 33.923 8.881 33.795 C 8.912 32.025 8.946 30.243 8.981 28.448 C 8.978 28.373 8.979 28.296 8.981 28.197 Z"/>
  <g id="hands" transform="matrix(1.1240830421447754, 0, 0, 1.1216779947280884, -2.431288957595825, -1.636734962463379)" style="">
    <path class="cls-3" d="M 13.312 20.443 C 12.725 21.665 10.998 21.793 10.202 20.672 C 9.754 20.042 9.769 19.205 10.241 18.601 L 14.437 13.157 C 14.947 12.5 16 12.639 16.331 13.408 C 16.453 13.689 16.445 14.007 16.314 14.283 L 13.312 20.443 Z" style="transform-origin: 12.533px 17.979px;"/>
    <path class="cls-3" d="M 19.885 8.596 C 20.635 9.897 19.653 11.515 18.118 11.511 C 17.407 11.509 16.756 11.137 16.408 10.533 C 15.66 9.236 16.643 7.618 18.175 7.622 C 18.886 7.623 19.54 7.996 19.885 8.596 Z M 25.55 18.82 C 26.35 19.918 25.623 21.465 24.241 21.603 C 23.463 21.682 22.726 21.261 22.419 20.563 L 19.622 14.311 C 19.286 13.553 19.921 12.716 20.765 12.806 C 21.074 12.837 21.353 12.999 21.535 13.245 L 25.55 18.82 Z" style="transform-origin: 18.804px 15.996px;"/>
  </g>
</svg>
