<?xml version="1.0" encoding="utf-8"?>
<svg viewBox="0 0 242.875 52.406" xmlns="http://www.w3.org/2000/svg">
  <defs>
    <style>
      .cls-1, .cls-3 {
        fill: #fff;
      }

      .cls-1, .cls-2, .cls-3 {
        fill-rule: evenodd;
      }

      .cls-2 {
        fill: #2163e8;
      }

      .cls-3 {
        opacity: 0.8;
      }
    </style>
  </defs>
  <path id="write" class="cls-1" d="M 83.392 19.692 C 86.652 19.692 88.908 20.705 90.159 22.731 C 91.41 24.757 92.036 27.444 92.036 30.791 C 92.036 34.137 91.403 36.824 90.136 38.85 C 88.871 40.875 86.623 41.888 83.392 41.888 C 81.181 41.888 79.216 41.155 77.5 39.687 L 75.928 41.36 L 73.44 41.36 L 73.44 13.614 L 78.897 12.867 L 78.897 20.705 C 80.381 20.03 81.879 19.692 83.392 19.692 Z M 81.865 38.762 C 83.553 38.762 84.76 38.064 85.488 36.669 C 86.215 35.274 86.579 33.316 86.579 30.791 C 86.579 28.06 86.215 25.983 85.488 24.558 C 84.76 23.135 83.553 22.423 81.865 22.423 C 80.875 22.423 79.886 22.629 78.897 23.039 L 78.897 37.881 C 79.77 38.468 80.759 38.762 81.865 38.762 Z M 114.953 20.22 L 114.953 41.36 L 111.417 41.36 L 109.976 38.982 C 108.201 40.92 106.047 41.888 103.515 41.888 C 99.034 41.888 96.792 39.628 96.792 35.107 L 96.792 20.22 L 102.25 20.22 L 102.25 34.489 C 102.25 35.987 102.503 37.118 103.013 37.881 C 103.522 38.645 104.36 39.026 105.523 39.026 C 107.036 39.026 108.361 38.306 109.495 36.868 L 109.495 20.22 L 114.953 20.22 Z M 132.98 19.692 C 135.191 19.692 136.879 20.28 138.043 21.454 C 139.207 22.629 139.789 24.301 139.789 26.475 L 139.789 41.36 L 134.333 41.36 L 134.333 27.091 C 134.333 25.564 134.1 24.463 133.635 23.788 C 133.168 23.113 132.426 22.775 131.408 22.775 C 129.924 22.775 128.469 23.303 127.043 24.361 L 127.043 41.36 L 121.586 41.36 L 121.586 20.22 L 123.987 20.22 L 125.952 22.246 C 126.999 21.483 128.155 20.867 129.421 20.397 C 130.687 19.927 131.874 19.692 132.98 19.692 Z M 162.926 31.407 L 149.961 31.407 C 149.961 34.285 150.295 36.295 150.965 37.441 C 151.634 38.585 152.725 39.158 154.239 39.158 C 156.683 39.158 157.993 37.807 158.167 35.107 L 162.664 35.283 C 162.46 37.338 161.703 38.953 160.393 40.127 C 159.084 41.301 156.96 41.888 154.02 41.888 C 150.645 41.888 148.214 40.971 146.73 39.136 C 145.245 37.3 144.503 34.52 144.503 30.791 C 144.503 27.444 145.194 24.757 146.576 22.731 C 147.959 20.705 150.411 19.692 153.933 19.692 C 157.338 19.692 159.687 20.72 160.982 22.775 C 162.278 24.83 162.926 27.502 162.926 30.791 L 162.926 31.407 Z M 153.889 22.423 C 152.637 22.423 151.714 22.9 151.116 23.854 C 150.52 24.808 150.164 26.416 150.048 28.677 L 157.644 28.677 C 157.556 26.592 157.228 25.028 156.661 23.985 C 156.093 22.944 155.17 22.423 153.889 22.423 Z M 184.794 20.22 L 174.448 50.3 L 170.214 49.771 L 174.23 42.285 L 164.975 20.22 L 170.432 20.22 L 176.674 35.679 L 181.651 20.22 L 184.794 20.22 Z M 205.397 12.867 L 205.397 41.36 L 201.861 41.36 L 200.508 39.158 C 198.877 40.979 196.928 41.888 194.658 41.888 C 192.039 41.888 190.067 40.986 188.744 39.18 C 187.419 37.374 186.757 34.695 186.757 31.143 C 186.757 23.509 189.638 19.692 195.401 19.692 C 196.972 19.692 198.485 20.103 199.94 20.925 L 199.94 13.614 L 205.397 12.867 Z M 196.23 39.158 C 197.714 39.158 198.951 38.497 199.94 37.176 L 199.94 23.656 C 199.067 23.069 198.063 22.775 196.928 22.775 C 193.785 22.775 192.214 25.564 192.214 31.143 C 192.214 36.486 193.552 39.158 196.23 39.158 Z M 214.653 17.843 C 213.751 17.843 212.979 17.52 212.339 16.874 C 211.699 16.228 211.379 15.465 211.379 14.583 C 211.379 13.645 211.699 12.851 212.339 12.206 C 212.979 11.559 213.751 11.237 214.653 11.237 C 215.555 11.237 216.333 11.559 216.988 12.206 C 217.643 12.851 217.97 13.645 217.97 14.583 C 217.97 15.494 217.643 16.264 216.988 16.895 C 216.333 17.527 215.555 17.843 214.653 17.843 Z M 217.359 41.36 L 211.946 41.36 L 211.946 20.22 L 217.359 20.22 L 217.359 41.36 Z" style=""/>
  <path id="Shape" class="cls-2" d="M 13.527 42.822 L 13.131 42.822 L 6.077 42.683 C 3.309 42.751 0.851 40.905 0.122 38.209 C 0.022 37.771 -0.025 37.324 -0.015 36.876 C 0.003 26.721 0.029 16.3 0.062 5.615 C -0.043 3.177 1.515 0.983 3.836 0.299 C 4.671 0.014 5.561 -0.071 6.435 0.049 C 22.179 1.785 36.895 3.403 50.681 4.925 C 53.142 5.236 55.071 7.207 55.347 9.694 C 55.399 10.118 55.407 10.544 55.372 10.969 C 54.726 20.362 54.089 29.545 53.463 38.519 C 53.382 40.52 52.158 42.294 50.325 43.065 C 49.651 43.367 48.916 43.508 48.18 43.473 C 40.547 43.327 32.627 43.174 24.423 43.017 C 24.197 43 23.975 43.09 23.822 43.259 C 20.927 46.174 18.017 49.101 15.091 52.039 C 14.662 52.62 13.778 52.541 13.453 51.898 C 13.387 51.714 13.361 51.518 13.376 51.323 C 13.423 48.636 13.474 45.929 13.527 43.204 C 13.522 43.09 13.524 42.973 13.527 42.822 Z" style=""/>
  <g id="hands" transform="matrix(1.127276062965393, 0, 0, 1.1260980367660522, -2.4381489753723145, -1.6431701183319092)" style="">
    <path class="cls-3" d="M 18.905 30.177 C 18.024 32.025 15.432 32.219 14.237 30.523 C 13.564 29.57 13.587 28.304 14.295 27.391 L 20.594 19.156 C 21.359 18.162 22.94 18.372 23.436 19.535 C 23.62 19.96 23.608 20.441 23.411 20.859 L 18.905 30.177 Z" style="transform-origin: 17.736px 26.45px;"/>
    <path class="cls-3" d="M 28.771 12.256 C 29.897 14.224 28.423 16.672 26.119 16.666 C 25.052 16.663 24.074 16.1 23.552 15.186 C 22.429 13.225 23.905 10.777 26.204 10.783 C 27.272 10.785 28.253 11.349 28.771 12.256 Z M 37.274 27.722 C 38.475 29.383 37.384 31.723 35.309 31.932 C 34.142 32.051 33.035 31.414 32.575 30.358 L 28.376 20.901 C 27.872 19.755 28.825 18.489 30.092 18.625 C 30.556 18.672 30.975 18.917 31.248 19.289 L 37.274 27.722 Z" style="transform-origin: 27.148px 23.45px;"/>
  </g>
</svg>