<?xml version="1.0" standalone="no"?>
<!DOCTYPE svg PUBLIC "-//W3C//DTD SVG 20010904//EN"
 "http://www.w3.org/TR/2001/REC-SVG-20010904/DTD/svg10.dtd">
<svg version="1.0" xmlns="http://www.w3.org/2000/svg"
 width="10603.000000pt" height="10876.000000pt" viewBox="0 0 10603.000000 10876.000000"
 preserveAspectRatio="xMidYMid meet">

<g transform="translate(0.000000,10876.000000) scale(0.100000,-0.100000)"
fill="#CD001A" stroke="none">
<path d="M51607 108709 c-6148 -77 -12387 -715 -18487 -1890 -6186 -1191
-12206 -2913 -18081 -5172 -2491 -958 -5382 -2225 -7294 -3196 -602 -306 -768
-396 -1435 -774 -869 -493 -1303 -721 -1593 -837 -33 -13 -61 -29 -64 -36 -2
-7 3 -133 11 -281 619 -10334 2961 -20636 7116 -31308 580 -1491 1066 -2670
1915 -4650 189 -440 472 -1108 630 -1485 486 -1161 633 -1495 807 -1845 355
-709 619 -973 1098 -1095 202 -52 467 -77 1135 -110 231 -12 544 -29 695 -40
151 -10 277 -16 279 -14 2 2 -465 1010 -1037 2241 -572 1231 -1111 2393 -1197
2583 -2558 5629 -4793 12078 -6425 18535 -453 1793 -826 3442 -1195 5290 -773
3865 -1245 7019 -1384 9245 -36 575 -58 1278 -46 1508 l7 139 147 63 c518 224
992 451 2121 1018 1711 858 2032 1010 3285 1547 4994 2142 10248 3923 14955
5070 7967 1943 14956 2925 22240 3125 1586 44 3690 44 5325 0 11281 -302
22057 -2461 32655 -6545 1430 -551 2920 -1171 4495 -1870 854 -379 1083 -488
2385 -1127 1441 -709 1984 -964 2573 -1209 l177 -74 0 -85 c0 -106 -15 -400
-35 -675 -183 -2542 -1044 -7205 -2429 -13155 -684 -2939 -1504 -6189 -2083
-8255 -52 -187 -97 -342 -99 -344 -1 -2 -61 42 -131 96 -268 210 -725 524
-899 619 -49 27 -204 99 -344 162 -140 62 -308 141 -374 175 l-118 62 6 63
c10 98 72 434 127 692 108 504 238 1009 575 2225 260 935 352 1285 464 1760
1113 4733 2001 9663 2484 13795 39 332 126 1120 126 1140 0 4 -42 22 -92 40
-265 94 -671 291 -1313 635 -681 366 -932 490 -2045 1010 -333 156 -776 365
-985 465 -3023 1451 -6005 2653 -9305 3750 -8171 2718 -17126 4322 -25635
4590 -825 26 -1141 31 -2190 37 -1742 9 -3150 -22 -4865 -107 -9969 -495
-20032 -2637 -29320 -6242 -1874 -727 -3400 -1389 -5444 -2362 -1389 -662
-1530 -732 -2261 -1131 -526 -287 -1062 -558 -1234 -625 l-114 -45 7 -500 c35
-2717 368 -5735 1006 -9120 1116 -5924 3168 -12849 5840 -19705 577 -1481
1019 -2471 2345 -5250 926 -1941 1219 -2582 1500 -3285 l92 -230 39 -8 c22 -4
2505 -286 5519 -627 3014 -341 7118 -806 9119 -1033 l3639 -412 47 -190 c223
-897 704 -1933 1351 -2905 306 -460 570 -792 863 -1086 670 -669 1321 -955
2386 -1046 111 -9 340 -13 815 -11 363 1 1724 1 3025 2 2737 0 3578 11 4335
56 430 26 638 54 762 100 263 99 660 389 1037 755 520 506 925 1047 1217 1625
204 405 321 769 374 1165 l6 46 9662 -3 c5314 -2 11376 -4 13470 -6 l3808 -3
106 -114 c195 -212 716 -724 873 -859 727 -623 1288 -878 2145 -975 342 -39
400 -40 2110 -41 1104 -1 1777 -5 1985 -13 173 -7 477 -19 675 -27 811 -32
1112 -29 1465 15 459 59 896 191 1400 425 681 315 1541 856 1762 1108 134 153
205 264 419 654 156 285 246 432 337 550 116 151 102 141 227 158 61 8 308 33
550 55 631 58 895 94 1125 156 116 31 290 98 323 124 229 181 608 3524 732
6470 32 757 36 968 42 1815 5 840 -2 1339 -28 1835 -66 1295 -207 2150 -438
2657 -100 220 -1249 2571 -1302 2667 -45 79 -378 521 -386 512 -1 -1 8 -114
22 -252 48 -501 59 -694 59 -1079 1 -378 -7 -507 -44 -760 -19 -131 -54 -313
-61 -319 -25 -20 -168 -97 -246 -131 -344 -151 -815 -250 -1408 -296 -195 -15
-737 -15 -935 0 -527 40 -986 135 -1267 261 -58 26 -73 37 -78 59 -15 73 -26
195 -31 371 -24 734 186 1937 441 2526 142 330 339 517 747 713 184 89 372
158 853 315 406 133 658 227 808 302 l87 44 -232 266 c-128 145 -232 268 -231
272 1 4 109 403 241 887 470 1721 823 3043 1181 4425 2125 8206 3321 14494
3711 19510 16 206 26 378 22 381 -4 4 -97 47 -207 97 -477 214 -1167 556
-2170 1074 -1508 779 -1875 958 -2910 1418 -9665 4298 -18310 6929 -27180
8270 -5090 770 -10357 1119 -15838 1049z m2833 -5849 c7189 -143 13993 -1104
20600 -2910 2339 -639 4293 -1243 6575 -2030 1679 -579 3801 -1400 5325 -2060
993 -430 1552 -691 3560 -1660 968 -467 1853 -885 2448 -1155 l172 -79 0 -215
c0 -1132 -310 -3273 -971 -6701 -106 -554 -554 -2828 -680 -3455 -566 -2819
-1125 -5177 -1720 -7250 -204 -713 -235 -810 -251 -808 -21 4 -6140 1917
-6468 2023 -2226 716 -4291 1255 -5710 1491 -173 29 -316 53 -318 55 -2 1 12
51 31 111 49 149 92 326 119 479 18 107 22 167 22 354 0 244 -12 332 -70 506
-221 659 -920 1062 -2185 1258 -629 98 -1205 148 -1899 166 -485 12 -590 27
-776 110 -214 97 -413 240 -1184 855 -481 384 -670 530 -1032 797 -1549 1144
-4338 3003 -5788 3856 -2170 1278 -3524 1855 -5515 2351 -1979 492 -5447 1050
-8715 1400 -3988 428 -7994 626 -11945 590 -4741 -43 -8936 -419 -12660 -1133
-2741 -526 -4616 -1164 -6367 -2167 -1047 -599 -2131 -1385 -3308 -2399 -727
-625 -2975 -2545 -2979 -2543 -18 5 -162 540 -245 908 -504 2240 -1112 7079
-1138 9069 l-3 220 530 318 c506 305 555 331 1075 592 1922 960 4338 2021
6630 2911 8269 3211 17177 5216 26215 5899 1995 151 4071 240 6105 260 480 5
1997 -4 2520 -14z m-5760 -13789 c2167 -62 3691 -144 5525 -296 1583 -132
3413 -339 4875 -551 1509 -219 2385 -467 3295 -933 443 -227 83 40 4935 -3662
3853 -2939 4468 -3412 4690 -3604 561 -487 672 -576 915 -737 208 -139 276
-195 345 -286 46 -61 137 -228 129 -236 -13 -12 -353 -28 -694 -33 -1184 -17
-2812 81 -7255 437 -2995 240 -3705 277 -5895 310 -3307 49 -7430 -1 -14610
-175 -1812 -44 -1668 -38 -2640 -110 -975 -72 -1159 -83 -1640 -91 -618 -12
-1113 26 -1524 116 -538 118 -918 343 -1101 652 -286 481 -999 2125 -2135
4923 -515 1268 -1376 3438 -1367 3447 20 20 202 91 327 128 1200 350 4834 608
10035 710 567 11 3318 4 3790 -9z m-20150 -615 c476 -41 846 -98 1205 -187
1142 -283 1953 -836 2467 -1684 77 -126 301 -565 497 -972 580 -1205 865
-1955 972 -2560 19 -105 23 -165 24 -333 0 -184 -2 -214 -23 -290 -57 -209
-175 -355 -362 -448 -156 -77 -304 -115 -570 -144 -198 -22 -765 -14 -1370 17
-970 52 -1433 38 -2125 -60 -1366 -194 -2490 -648 -2976 -1201 -130 -148 -229
-323 -270 -479 -46 -177 -35 -399 30 -588 65 -187 66 -189 393 -553 168 -187
321 -352 341 -367 31 -23 83 -91 122 -156 7 -12 -25 -13 -216 -7 -222 6 -654
16 -1604 36 -1915 40 -2966 88 -3663 166 -497 55 -709 117 -822 241 -115 126
-126 290 -54 763 116 753 382 1874 694 2920 618 2072 1346 3843 2003 4875 185
290 335 431 592 556 244 118 487 177 990 238 1203 148 1729 201 2295 231 267
14 1214 5 1430 -14z m-6456 -2387 c-643 -1649 -717 -1845 -924 -2453 -364
-1067 -604 -1875 -940 -3160 -156 -600 -200 -755 -260 -931 -128 -371 -263
-524 -510 -580 -157 -35 -428 -36 -1015 -5 -204 11 -811 23 -1950 40 -1510 22
-2372 55 -2765 106 -144 19 -203 44 -279 122 -274 280 -248 952 74 1917 161
483 414 1053 600 1354 432 698 2234 2091 4326 3344 1758 1052 3291 1758 4174
1922 66 12 121 19 123 15 2 -4 -293 -765 -654 -1691z m-7839 -7789 c1380 -40
2185 -67 3115 -105 4011 -165 7826 -433 11877 -835 386 -38 2335 -250 4330
-470 1995 -220 4628 -510 5851 -645 2667 -294 2943 -327 3361 -411 489 -97
826 -216 1081 -382 103 -66 125 -84 219 -175 175 -172 266 -364 291 -622 17
-169 21 -162 -118 -228 -148 -69 -254 -114 -787 -327 -692 -277 -991 -415
-1480 -683 -884 -484 -1398 -889 -2282 -1798 -486 -500 -586 -620 -839 -1006
-75 -114 -171 -260 -212 -323 -88 -132 -282 -393 -288 -387 -9 9 106 436 195
727 173 566 198 713 151 895 -46 181 -167 302 -421 424 -276 133 -566 209
-1544 407 -4140 836 -11710 1887 -21499 2983 -488 55 -890 101 -891 103 -4 4
-705 2847 -705 2859 0 12 171 11 595 -1z m41880 -7160 c1455 -39 2980 -138
5045 -330 294 -27 911 -81 1370 -120 1495 -125 2012 -188 2675 -321 1798 -363
2865 -1113 3384 -2378 58 -140 150 -418 176 -533 l18 -77 -33 -28 c-616 -527
-2005 -861 -4060 -978 -644 -36 -839 -40 -1945 -40 -1234 0 -1679 11 -2935 75
-1216 62 -1886 111 -2405 176 -1209 151 -2164 451 -3038 954 -459 264 -718
459 -1076 813 -575 567 -1086 1275 -1420 1967 -125 259 -274 652 -254 671 8 7
294 35 648 64 1145 93 2450 121 3850 85z m21555 -495 c470 -8 1665 -19 2655
-25 990 -6 2221 -15 2735 -20 514 -6 1554 -12 2310 -15 1695 -7 2065 -17 2645
-75 1036 -104 1727 -333 2047 -678 101 -110 163 -221 227 -406 223 -647 238
-1575 35 -2263 -163 -556 -448 -989 -842 -1281 -230 -169 -490 -289 -802 -367
-568 -143 -1391 -248 -2315 -295 -601 -30 -831 -34 -2480 -35 -1060 -1 -1837
-7 -2045 -14 -408 -14 -937 -35 -1535 -61 -1919 -84 -2844 -89 -3810 -20
-2007 144 -3257 668 -3925 1646 -177 259 -643 1131 -854 1597 -411 911 -471
1433 -197 1716 123 127 280 207 572 290 179 52 889 208 1054 231 317 46 909
81 1605 94 353 7 2107 -4 2920 -19z m-34222 -2426 c454 -50 877 -238 1302
-577 123 -99 367 -337 487 -477 869 -1009 1546 -2669 1918 -4710 137 -748 224
-1518 276 -2425 17 -306 23 -1230 10 -1585 -76 -2052 -442 -3827 -1103 -5338
-91 -209 -314 -648 -424 -837 -582 -996 -1258 -1653 -1996 -1940 -481 -188
-979 -204 -1464 -49 -737 236 -1437 878 -2032 1864 -652 1083 -1110 2417
-1372 3997 -473 2863 -236 6143 617 8543 492 1384 1153 2395 1950 2987 395
294 842 479 1309 542 122 17 392 20 522 5z m50907 -8048 c1083 -79 1658 -304
1872 -736 86 -173 120 -341 163 -800 25 -262 39 -362 85 -595 46 -238 51 -293
31 -362 -27 -95 -92 -162 -250 -261 -520 -322 -2755 -606 -6511 -827 -3149
-185 -7435 -329 -11620 -392 -1098 -16 -5540 -17 -6785 0 -4200 55 -7499 140
-13497 345 -370 13 -657 27 -662 32 -5 6 -15 60 -22 120 -79 736 413 1517
1342 2128 425 279 926 505 1309 591 1062 235 4732 407 11275 526 4224 77 9351
125 17030 160 2807 13 3607 23 4190 50 242 12 550 25 685 30 308 11 1166 5
1365 -9z"/>
<path d="M42825 67480 c-874 -89 -1656 -711 -2291 -1823 -104 -182 -298 -575
-389 -792 -516 -1217 -858 -2781 -970 -4430 -52 -785 -52 -1645 1 -2405 160
-2300 766 -4251 1709 -5505 276 -366 620 -717 955 -970 267 -202 567 -353 803
-405 177 -39 372 -31 532 21 101 33 125 45 109 57 -68 48 -300 189 -514 312
-313 180 -394 236 -510 351 -235 234 -610 826 -915 1444 -241 489 -404 889
-591 1450 -772 2322 -936 5127 -443 7610 278 1403 764 2654 1402 3610 293 438
538 723 767 892 52 39 185 128 295 198 110 70 281 182 379 249 l179 121 -39 7
c-67 12 -375 17 -469 8z"/>
<path d="M44590 66863 c-224 -38 -551 -175 -775 -325 -404 -270 -773 -691
-1095 -1248 -95 -165 -271 -524 -358 -730 -470 -1117 -780 -2584 -882 -4175
-43 -684 -43 -1563 0 -2250 151 -2374 767 -4349 1687 -5416 112 -129 320 -332
433 -422 232 -185 498 -332 753 -415 136 -45 314 -89 321 -80 28 33 245 351
325 476 1571 2440 2257 5614 1891 8747 -233 1990 -909 3880 -1927 5385 -156
230 -325 460 -337 459 -6 -1 -22 -4 -36 -6z"/>
<path d="M26290 44829 c-344 -30 -662 -115 -935 -251 -357 -177 -829 -582
-1160 -995 -64 -80 -8010 -11274 -8088 -11395 l-19 -28 2284 0 2283 0 1066
1508 c3556 5030 4783 6762 4789 6762 4 0 513 -746 1131 -1657 1025 -1512 1398
-2056 1657 -2416 51 -70 173 -248 271 -395 99 -147 238 -347 310 -446 73 -98
130 -180 128 -182 -2 -3 -78 0 -168 6 -406 25 -876 30 -2964 30 l-2210 0
-1163 -1601 c-640 -881 -1161 -1603 -1159 -1605 2 -2 3264 -3 7250 -2 l7246 3
-3890 5630 c-2140 3097 -3918 5667 -3951 5713 -218 301 -498 595 -784 823
-366 293 -792 451 -1349 499 -138 11 -436 11 -575 -1z"/>
<path d="M79280 44829 c-344 -30 -662 -115 -935 -251 -357 -177 -829 -582
-1160 -995 -63 -80 -8010 -11274 -8088 -11395 l-19 -28 2284 0 2283 0 2924
4135 c1608 2274 2927 4135 2931 4135 4 0 500 -726 1101 -1612 1142 -1686 1315
-1939 1614 -2358 100 -140 259 -370 352 -510 94 -140 230 -335 302 -434 73
-98 130 -180 128 -182 -2 -3 -78 0 -168 6 -415 25 -872 30 -2964 30 l-2210 0
-1163 -1601 c-640 -881 -1161 -1603 -1159 -1605 2 -2 3264 -3 7250 -2 l7246 3
-3890 5630 c-2140 3097 -3918 5667 -3951 5713 -218 301 -498 595 -784 823
-366 293 -792 451 -1349 499 -138 11 -436 11 -575 -1z"/>
<path d="M93045 44834 c-426 -45 -805 -186 -1090 -408 -88 -68 -269 -250 -330
-331 -173 -231 -343 -618 -404 -926 -60 -296 -55 175 -58 -5671 l-3 -5338
1750 0 1750 0 0 3660 c0 2013 3 3660 8 3660 4 0 234 -204 512 -452 277 -249
2027 -1821 3890 -3492 1862 -1671 3430 -3075 3485 -3119 235 -189 479 -325
676 -377 246 -65 327 -74 639 -75 254 0 299 3 411 23 612 110 1049 396 1342
878 89 145 187 351 229 477 48 147 92 363 115 567 17 147 18 435 18 5440 l0
5285 -1762 3 -1763 2 -2 -3664 -3 -3664 -3855 3460 c-2120 1903 -3920 3513
-4000 3577 -236 190 -473 336 -625 384 -80 26 -251 65 -360 82 -96 16 -481 28
-570 19z"/>
<path d="M50 38400 l0 -6240 1935 0 1935 0 0 2097 c0 1697 -3 2155 -15 2402
-20 429 -36 853 -31 858 2 2 78 -68 168 -155 142 -136 447 -417 978 -902 193
-176 526 -469 950 -836 212 -183 1193 -1037 2180 -1898 l1795 -1565 2920 0
c1640 -1 2915 3 2910 8 -6 4 -1175 938 -2600 2074 -1424 1137 -2779 2218
-3011 2404 -925 743 -1709 1334 -2498 1884 -149 104 -284 200 -299 212 l-28
22 359 228 c198 125 456 295 573 379 118 83 340 238 494 346 364 254 563 400
1115 819 250 190 1579 1188 2953 2219 1373 1031 2497 1876 2497 1879 0 3
-1257 5 -2792 5 l-2793 -1 -1740 -1471 c-957 -809 -1841 -1554 -1965 -1656
-424 -350 -1066 -911 -1385 -1212 -101 -94 -730 -668 -784 -715 l-24 -20 7 95
c4 52 19 302 33 555 l27 460 3 1983 4 1982 -1936 0 -1935 0 0 -6240z"/>
<path d="M38230 38400 l0 -6240 5508 0 5509 0 1244 1597 c684 878 1246 1600
1247 1605 2 4 -2170 8 -4827 8 l-4831 0 0 4635 0 4635 -1925 0 -1925 0 0
-6240z"/>
<path d="M53040 38400 l0 -6240 1935 0 1935 0 0 2097 c0 1697 -3 2155 -15
2402 -20 429 -36 853 -31 858 2 2 77 -67 168 -154 90 -87 238 -226 328 -309
91 -83 275 -252 410 -375 331 -304 650 -587 1076 -956 196 -169 1196 -1040
2223 -1935 l1866 -1627 2920 0 c1640 -1 2915 3 2910 8 -6 4 -1175 938 -2600
2074 -1424 1137 -2779 2218 -3011 2404 -925 743 -1709 1334 -2498 1884 -149
104 -284 200 -299 212 l-28 22 359 228 c198 125 456 295 573 379 118 83 340
238 494 346 364 254 563 400 1115 819 250 190 1579 1188 2953 2219 1373 1031
2497 1876 2497 1879 0 3 -1257 5 -2792 5 l-2793 -1 -1740 -1471 c-957 -809
-1841 -1554 -1965 -1656 -424 -350 -1066 -911 -1385 -1212 -101 -94 -730 -668
-784 -715 l-24 -20 7 95 c4 52 19 302 33 555 l27 460 3 1983 4 1982 -1936 0
-1935 0 0 -6240z"/>
<path d="M68055 30263 c-462 -37 -759 -81 -1121 -168 -955 -229 -1835 -676
-2527 -1285 -148 -131 -422 -409 -536 -545 -486 -583 -724 -1098 -935 -2027
-171 -753 -274 -1582 -328 -2648 -16 -321 -16 -1411 0 -1730 65 -1279 214
-2283 461 -3101 229 -759 547 -1286 1126 -1864 337 -338 684 -604 1094 -839
1471 -845 3374 -1019 5056 -461 1235 410 2216 1140 2871 2140 434 663 701
1426 800 2288 l6 57 -1338 0 c-737 0 -1578 -3 -1870 -7 l-531 -6 -42 -109
c-204 -526 -560 -979 -966 -1228 -533 -328 -1144 -339 -1775 -34 -277 134
-454 274 -608 481 -347 463 -510 1138 -552 2283 -13 359 -13 2229 0 2570 43
1113 207 1782 556 2271 109 153 308 344 460 441 298 191 781 295 1204 259 503
-43 888 -199 1129 -458 96 -102 172 -218 347 -533 150 -271 232 -407 311 -517
l44 -63 1825 0 c1615 0 1824 2 1824 15 0 8 -18 106 -40 216 -212 1067 -622
1955 -1251 2710 -131 158 -437 464 -599 601 -890 749 -1975 1182 -3216 1283
-166 13 -747 19 -879 8z"/>
<path d="M12265 30149 c-231 -4 -595 -12 -810 -18 -867 -23 -1767 -33 -2175
-23 -223 5 -406 9 -406 8 -1 0 -4 -3309 -8 -7353 l-7 -7351 873 4 c480 2 1314
7 1853 10 l980 6 -4 2726 -3 2725 638 -6 c351 -4 641 -10 645 -15 4 -4 582
-1226 1285 -2717 702 -1490 1280 -2713 1284 -2718 3 -4 976 -6 2162 -5 l2156
3 -63 165 c-93 246 -178 435 -386 850 -278 556 -454 879 -1182 2170 -604 1072
-819 1460 -1052 1900 -117 221 -385 759 -440 884 l-39 89 49 44 c92 82 398
308 610 450 255 172 390 279 556 441 294 286 536 623 724 1007 604 1240 591
2848 -34 4121 -104 212 -152 296 -287 499 -399 601 -913 1044 -1599 1380 -461
225 -947 383 -1550 504 -940 188 -2039 252 -3770 220z m2315 -3303 c847 -88
1330 -342 1555 -819 133 -281 171 -699 96 -1047 -123 -560 -528 -900 -1246
-1045 -330 -67 -693 -90 -1275 -82 -409 6 -1128 32 -1137 41 -3 3 -2 664 3
1470 l7 1465 51 5 c28 3 213 10 411 16 198 6 369 13 380 15 11 2 241 2 510 0
361 -2 531 -7 645 -19z"/>
<path d="M48570 29234 c-877 -18 -1639 -33 -1692 -33 l-98 -1 7 -1554 6 -1553
-104 -7 c-57 -3 -266 -8 -464 -11 -198 -3 -384 -8 -412 -11 l-53 -5 0 -1295 0
-1294 503 -2 502 -3 8 -195 c5 -107 10 -1039 11 -2070 3 -1829 6 -2032 37
-2490 77 -1137 308 -1811 783 -2286 231 -230 492 -398 836 -538 730 -296 1713
-437 3308 -472 l302 -7 -6 1424 c-4 783 -8 1426 -10 1428 -2 2 -171 -1 -376
-6 -401 -11 -645 -5 -836 22 -126 18 -382 80 -474 115 l-58 21 0 507 c0 279
-7 1411 -15 2517 -7 1105 -12 2012 -10 2014 2 2 404 3 894 2 l889 -2 -4 98
c-2 54 -11 645 -20 1313 -9 668 -19 1217 -21 1220 -3 3 -372 6 -821 8 -449 1
-845 5 -879 8 l-63 6 0 1584 0 1584 -37 -1 c-21 -1 -756 -16 -1633 -35z"/>
<path d="M79225 26640 c-1172 -51 -2029 -267 -2625 -665 -161 -107 -266 -190
-545 -430 -269 -230 -304 -259 -398 -330 l-78 -58 78 -79 c172 -174 1983
-1953 1990 -1955 15 -5 260 134 485 275 263 165 338 207 455 260 248 112 491
155 858 155 291 0 599 -28 824 -74 535 -109 790 -329 896 -771 40 -170 49
-267 50 -548 l0 -265 -130 -12 c-311 -28 -606 -34 -1490 -27 -1026 7 -1186 2
-1605 -57 -982 -138 -1816 -603 -2346 -1306 -480 -636 -673 -1454 -558 -2353
94 -737 340 -1359 731 -1850 88 -111 295 -323 408 -418 504 -424 1146 -691
1890 -786 324 -41 778 -46 1095 -11 619 68 1198 248 1615 500 157 95 247 166
374 293 l114 113 -6 -415 -6 -416 1710 0 1709 0 -3 3713 c-3 2672 -7 3743 -15
3822 -27 261 -45 400 -72 560 -171 1015 -611 1769 -1325 2270 -708 497 -1690
773 -3035 855 -239 14 -813 20 -1045 10z m1445 -6760 c199 -11 500 -37 539
-47 l24 -6 -6 -261 c-4 -144 -11 -304 -17 -356 -63 -588 -258 -846 -786 -1038
-312 -114 -634 -165 -897 -143 -385 33 -677 164 -907 408 -104 109 -171 219
-218 355 -31 89 -36 119 -40 220 -5 143 13 235 68 346 77 153 200 270 375 357
191 94 397 138 765 164 171 12 888 12 1100 1z"/>
<path d="M93035 26640 c-1009 -56 -1931 -422 -2285 -907 -13 -18 -26 -33 -30
-33 -3 0 -54 98 -114 218 l-107 217 -9 98 c-6 67 -19 128 -41 193 l-32 94
-1644 0 -1643 0 0 -5548 0 -5549 278 -6 c152 -4 936 -7 1741 -7 l1463 0 -8
243 c-13 347 -6 6385 7 6567 49 701 264 1038 803 1254 194 78 383 116 582 116
368 0 692 -132 1140 -465 l111 -83 1039 1042 c1538 1540 1518 1520 1506 1542
-20 37 -288 290 -389 367 -401 305 -904 512 -1463 601 -261 42 -640 61 -905
46z"/>
<path d="M26874 26629 c-1112 -53 -2203 -389 -2870 -884 -1643 -1221 -2496
-4028 -1963 -6464 314 -1433 1092 -2579 2209 -3251 672 -404 1435 -639 2360
-727 233 -22 976 -25 1230 -5 1141 89 1878 295 2597 724 190 113 393 249 728
488 127 90 307 215 400 278 94 62 173 117 178 121 10 10 -87 293 -119 348 -13
23 -66 80 -117 126 -50 46 -218 199 -372 338 -154 140 -362 333 -463 429 -430
411 -523 498 -641 599 -135 116 -308 251 -323 251 -17 0 -154 -74 -224 -121
-39 -26 -141 -105 -225 -174 -196 -160 -301 -231 -465 -311 -390 -191 -914
-295 -1414 -281 -364 11 -647 69 -938 194 -572 244 -948 721 -1066 1353 -25
135 -36 210 -33 211 8 2 5693 28 6188 29 l626 0 7 63 c3 34 9 267 12 517 7
467 -2 814 -31 1180 -96 1211 -374 2160 -856 2921 -532 841 -1338 1439 -2416
1794 -610 202 -1291 288 -1999 254z m357 -2760 c646 -65 1154 -460 1372 -1064
60 -167 107 -432 107 -602 l0 -86 -382 6 c-211 4 -965 7 -1675 7 l-1293 0 0
53 c0 130 42 362 97 532 140 436 446 793 848 990 278 136 617 196 926 164z"/>
<path d="M40170 26630 c-940 -47 -1878 -377 -2405 -846 l-85 -75 0 410 0 411
-1698 0 -1699 0 -6 -2672 c-4 -1469 -7 -3971 -7 -5559 l0 -2888 1733 6 c952 3
1734 8 1737 12 3 3 2 143 -2 311 -11 454 -15 2397 -11 5680 0 624 40 971 149
1299 160 482 431 742 879 842 131 30 446 37 615 15 348 -46 575 -147 773 -343
130 -128 215 -271 286 -477 119 -344 155 -765 130 -1511 -11 -334 -14 -955
-14 -2780 0 -1292 -4 -2509 -9 -2704 l-9 -354 1179 6 c649 4 1431 7 1740 7
l560 0 2 753 c1 413 6 1033 12 1377 28 1707 23 3573 -10 4470 -43 1141 -130
1918 -260 2325 -67 209 -198 474 -347 704 -530 816 -1370 1368 -2328 1530
-269 46 -619 65 -905 51z"/>
<path d="M57367 24570 c-674 -61 -1235 -262 -1610 -578 -72 -61 -196 -193
-217 -233 -7 -12 97 -125 472 -515 265 -274 485 -500 488 -502 4 -1 134 49
291 112 309 124 508 191 670 228 85 19 133 23 264 23 141 0 168 -3 230 -23
272 -91 422 -346 460 -783 l7 -76 -453 -6 c-579 -8 -858 -27 -1194 -83 -794
-134 -1259 -449 -1449 -982 -15 -41 -38 -131 -53 -200 -25 -119 -27 -144 -27
-382 -1 -275 11 -389 60 -584 36 -143 69 -236 129 -361 240 -500 695 -817
1291 -900 182 -26 522 -17 705 18 337 65 664 192 929 362 39 25 73 45 75 43 1
-2 14 -57 28 -123 34 -151 61 -199 137 -237 64 -32 167 -48 308 -48 119 -1
1096 29 1208 36 l82 6 6 51 c30 263 34 683 28 2662 -4 1144 -12 1296 -83 1583
-78 319 -235 589 -487 839 -334 333 -835 547 -1476 634 -172 23 -649 34 -819
19z m858 -3534 c72 -9 141 -18 154 -21 l24 -6 -6 -137 c-6 -156 -28 -257 -81
-367 -90 -190 -236 -307 -444 -356 -125 -30 -344 -23 -486 15 -114 31 -243 82
-335 134 l-64 35 7 266 6 266 33 28 c87 75 283 133 528 157 129 12 506 4 664
-14z"/>
<path d="M36540 13474 c-74 -2 -394 -13 -710 -24 -316 -11 -635 -22 -707 -23
l-132 -2 1442 -1465 1443 -1465 3680 -3038 c4150 -3426 3719 -3084 4714 -3745
261 -173 716 -476 1011 -673 1063 -709 2197 -1429 3224 -2047 913 -550 1489
-861 1727 -933 63 -19 77 -20 140 -10 463 76 2044 1065 4598 2875 1553 1100
3561 2584 4495 3321 311 245 484 378 1035 795 903 684 1156 891 1520 1245 410
399 447 431 828 719 327 246 370 283 637 535 121 114 679 618 1240 1121 561
502 1092 983 1180 1068 188 182 687 691 952 970 323 341 642 699 643 723 0 3
-136 9 -302 12 -167 4 -481 14 -698 21 -862 32 -1278 29 -1633 -10 -247 -26
-467 -79 -588 -140 -94 -47 -325 -231 -664 -528 -200 -176 -439 -394 -1200
-1091 -1463 -1342 -2161 -1941 -2740 -2352 -385 -274 -411 -294 -700 -563
-316 -293 -352 -322 -1435 -1134 -2332 -1749 -4544 -3338 -5832 -4190 -806
-532 -1222 -766 -1362 -766 -244 0 -1348 652 -3271 1930 -1032 687 -2240 1512
-3043 2081 -170 119 -689 557 -3975 3351 -2079 1767 -3799 3226 -3822 3241
-130 85 -432 151 -815 176 -164 11 -676 20 -880 15z"/>
<path d="M42495 13459 c-333 -19 -820 -52 -825 -56 -14 -13 332 -317 760 -668
140 -115 377 -313 525 -440 1936 -1659 5035 -3889 7265 -5227 801 -481 1465
-834 2010 -1069 l134 -58 181 93 c659 341 1666 982 3135 1995 195 134 751 521
1235 859 484 338 999 698 1145 800 644 450 1323 959 1925 1441 427 343 847
678 1216 971 704 559 1113 904 1347 1136 83 83 152 158 152 167 0 13 -57 16
-427 22 -889 16 -1391 -24 -1734 -136 -52 -17 -149 -57 -216 -89 -219 -105
-375 -220 -782 -579 -857 -755 -1371 -1154 -2261 -1752 -135 -91 -591 -412
-1015 -715 -834 -596 -1226 -873 -1630 -1149 -1237 -845 -2032 -1300 -2353
-1347 -71 -10 -83 -9 -147 12 -234 78 -770 382 -1635 928 -1103 697 -2763
1815 -3329 2241 -106 80 -290 220 -410 310 -119 89 -436 323 -706 519 -650
472 -1048 770 -1399 1046 -370 292 -495 386 -631 476 -245 161 -436 232 -715
265 -136 16 -562 18 -815 4z"/>
</g>
</svg>
