<?xml version="1.0" encoding="utf-8"?>
<svg viewBox="0 0 242.875 52.406" xmlns="http://www.w3.org/2000/svg">
  <defs>
    <style>
      .cls-1, .cls-3 {
        fill: #191a1f;
      }

      .cls-1, .cls-2, .cls-3 {
        fill-rule: evenodd;
      }

      .cls-2 {
        fill: #2163e8;
      }

      .cls-3 {
        opacity: 0.8;
      }
    </style>
  </defs>
  <path id="write" class="cls-1" d="M 80.282 19.654 C 83.42 19.654 85.591 20.665 86.796 22.687 C 88 24.708 88.603 27.39 88.603 30.73 C 88.603 34.07 87.993 36.752 86.774 38.774 C 85.556 40.795 83.392 41.806 80.282 41.806 C 78.153 41.806 76.261 41.074 74.609 39.609 L 73.096 41.279 L 70.7 41.279 L 70.7 13.588 L 75.953 12.841 L 75.953 20.665 C 77.382 19.991 78.825 19.654 80.282 19.654 Z M 78.811 38.686 C 80.436 38.686 81.599 37.989 82.299 36.597 C 82.999 35.206 83.35 33.25 83.35 30.73 C 83.35 28.005 82.999 25.932 82.299 24.51 C 81.599 23.089 80.436 22.379 78.811 22.379 C 77.858 22.379 76.906 22.584 75.953 22.994 L 75.953 37.807 C 76.794 38.393 77.746 38.686 78.811 38.686 Z M 110.664 20.181 L 110.664 41.279 L 107.26 41.279 L 105.874 38.905 C 104.165 40.839 102.091 41.806 99.654 41.806 C 95.339 41.806 93.182 39.55 93.182 35.037 L 93.182 20.181 L 98.435 20.181 L 98.435 34.422 C 98.435 35.917 98.68 37.045 99.17 37.807 C 99.661 38.568 100.466 38.949 101.587 38.949 C 103.044 38.949 104.319 38.231 105.411 36.796 L 105.411 20.181 L 110.664 20.181 Z M 128.019 19.654 C 130.148 19.654 131.773 20.24 132.894 21.412 C 134.015 22.584 134.575 24.254 134.575 26.423 L 134.575 41.279 L 129.322 41.279 L 129.322 27.038 C 129.322 25.514 129.098 24.415 128.65 23.741 C 128.201 23.067 127.487 22.73 126.506 22.73 C 125.077 22.73 123.677 23.258 122.304 24.313 L 122.304 41.279 L 117.051 41.279 L 117.051 20.181 L 119.362 20.181 L 121.253 22.203 C 122.262 21.441 123.375 20.826 124.593 20.357 C 125.813 19.888 126.955 19.654 128.019 19.654 Z M 156.848 31.345 L 144.367 31.345 C 144.367 34.217 144.689 36.224 145.333 37.367 C 145.978 38.51 147.028 39.081 148.485 39.081 C 150.839 39.081 152.099 37.733 152.268 35.037 L 156.596 35.213 C 156.4 37.264 155.672 38.876 154.411 40.048 C 153.15 41.22 151.105 41.806 148.275 41.806 C 145.025 41.806 142.686 40.89 141.257 39.058 C 139.828 37.228 139.114 34.451 139.114 30.73 C 139.114 27.39 139.779 24.708 141.109 22.687 C 142.44 20.665 144.801 19.654 148.191 19.654 C 151.469 19.654 153.731 20.679 154.977 22.73 C 156.225 24.782 156.848 27.448 156.848 30.73 L 156.848 31.345 Z M 148.149 22.379 C 146.944 22.379 146.055 22.855 145.48 23.807 C 144.906 24.759 144.563 26.364 144.451 28.62 L 151.763 28.62 C 151.679 26.54 151.364 24.979 150.817 23.938 C 150.271 22.899 149.382 22.379 148.149 22.379 Z M 177.901 20.181 L 167.941 50.201 L 163.865 49.674 L 167.731 42.202 L 158.822 20.181 L 164.075 20.181 L 170.085 35.609 L 174.875 20.181 L 177.901 20.181 Z M 197.735 12.841 L 197.735 41.279 L 194.331 41.279 L 193.029 39.081 C 191.46 40.898 189.583 41.806 187.397 41.806 C 184.876 41.806 182.978 40.905 181.704 39.102 C 180.429 37.301 179.791 34.627 179.791 31.082 C 179.791 23.463 182.565 19.654 188.112 19.654 C 189.625 19.654 191.082 20.064 192.482 20.884 L 192.482 13.588 L 197.735 12.841 Z M 188.91 39.081 C 190.339 39.081 191.53 38.422 192.482 37.103 L 192.482 23.61 C 191.642 23.023 190.675 22.73 189.583 22.73 C 186.557 22.73 185.044 25.514 185.044 31.082 C 185.044 36.415 186.333 39.081 188.91 39.081 Z M 206.646 17.808 C 205.778 17.808 205.035 17.485 204.419 16.841 C 203.803 16.196 203.494 15.434 203.494 14.555 C 203.494 13.617 203.803 12.826 204.419 12.182 C 205.035 11.537 205.778 11.215 206.646 11.215 C 207.515 11.215 208.264 11.537 208.894 12.182 C 209.525 12.826 209.84 13.617 209.84 14.555 C 209.84 15.463 209.525 16.232 208.894 16.862 C 208.264 17.492 207.515 17.808 206.646 17.808 Z M 209.252 41.279 L 204.041 41.279 L 204.041 20.181 L 209.252 20.181 L 209.252 41.279 Z" style=""/>
  <path id="Shape" class="cls-2" d="M 13.022 42.738 L 12.641 42.738 L 5.85 42.599 C 3.185 42.667 0.819 40.824 0.117 38.134 C 0.02 37.697 -0.025 37.25 -0.015 36.803 C 0.003 26.668 0.027 16.268 0.059 5.604 C -0.042 3.171 1.458 0.981 3.692 0.299 C 4.497 0.014 5.353 -0.071 6.195 0.049 C 21.351 1.781 35.518 3.397 48.789 4.916 C 51.159 5.225 53.016 7.194 53.282 9.675 C 53.332 10.098 53.34 10.524 53.306 10.948 C 52.685 20.322 52.072 29.487 51.469 38.443 C 51.391 40.441 50.212 42.211 48.447 42.981 C 47.798 43.283 47.091 43.422 46.382 43.387 C 39.034 43.242 31.41 43.09 23.512 42.932 C 23.293 42.916 23.08 43.005 22.932 43.173 C 20.146 46.083 17.345 49.004 14.527 51.937 C 14.114 52.516 13.264 52.439 12.951 51.796 C 12.887 51.613 12.862 51.417 12.877 51.223 C 12.922 48.54 12.971 45.839 13.022 43.119 C 13.017 43.005 13.019 42.888 13.022 42.738 Z" style=""/>
  <g id="hands" transform="matrix(1.628944993019104, 0, 0, 1.7000600099563599, -3.5160880088806152, -2.478769063949585)" style="">
    <path class="cls-3" d="M 13.312 20.443 C 12.725 21.665 10.998 21.793 10.202 20.672 C 9.754 20.042 9.769 19.205 10.241 18.601 L 14.437 13.157 C 14.947 12.5 16 12.639 16.331 13.408 C 16.453 13.689 16.445 14.007 16.314 14.283 L 13.312 20.443 Z" style="transform-origin: 12.533px 17.979px;"/>
    <path class="cls-3" d="M 19.885 8.596 C 20.635 9.897 19.653 11.515 18.118 11.511 C 17.407 11.509 16.756 11.137 16.408 10.533 C 15.66 9.236 16.643 7.618 18.175 7.622 C 18.886 7.623 19.54 7.996 19.885 8.596 Z M 25.55 18.82 C 26.35 19.918 25.623 21.465 24.241 21.603 C 23.463 21.682 22.726 21.261 22.419 20.563 L 19.622 14.311 C 19.286 13.553 19.921 12.716 20.765 12.806 C 21.074 12.837 21.353 12.999 21.535 13.245 L 25.55 18.82 Z" style="transform-origin: 18.804px 15.996px;"/>
  </g>
</svg>