<?xml version="1.0" encoding="utf-8"?>
<svg viewBox="0 0 36.813 34.531" xmlns="http://www.w3.org/2000/svg">
  <defs>
    <style>
      .cls-1 {
        fill: #2163e8;
      }

      .cls-1, .cls-2 {
        fill-rule: evenodd;
      }

      .cls-2 {
        fill: #fff;
        opacity: 0.8;
      }
    </style>
  </defs>
  <path id="Shape" class="cls-1" d="M 8.981 28.197 L 8.718 28.197 L 4.032 28.105 C 2.193 28.15 0.56 26.934 0.076 25.159 C 0.009 24.871 -0.022 24.576 -0.015 24.281 C -0.003 17.594 0.014 10.732 0.036 3.696 C -0.034 2.091 1.001 0.646 2.543 0.196 C 3.098 0.008 3.689 -0.048 4.27 0.031 C 14.729 1.174 24.505 2.24 33.663 3.242 C 35.298 3.446 36.58 4.745 36.763 6.382 C 36.798 6.661 36.803 6.942 36.78 7.222 C 36.351 13.407 35.928 19.454 35.512 25.363 C 35.458 26.681 34.645 27.849 33.427 28.357 C 32.979 28.556 32.491 28.648 32.002 28.625 C 26.931 28.529 21.67 28.429 16.22 28.325 C 16.069 28.314 15.922 28.373 15.82 28.484 C 13.897 30.404 11.964 32.331 10.02 34.266 C 9.735 34.648 9.148 34.597 8.932 34.173 C 8.888 34.052 8.871 33.923 8.881 33.795 C 8.912 32.025 8.946 30.243 8.981 28.448 C 8.978 28.373 8.979 28.296 8.981 28.197 Z"/>
  <g id="hands" transform="matrix(1.1240830421447754, 0, 0, 1.1216779947280884, -2.431288957595825, -1.636734962463379)" style="">
    <path class="cls-2" d="M 13.312 20.443 C 12.725 21.665 10.998 21.793 10.202 20.672 C 9.754 20.042 9.769 19.205 10.241 18.601 L 14.437 13.157 C 14.947 12.5 16 12.639 16.331 13.408 C 16.453 13.689 16.445 14.007 16.314 14.283 L 13.312 20.443 Z" style="transform-origin: 12.533px 17.979px;"/>
    <path class="cls-2" d="M 19.885 8.596 C 20.635 9.897 19.653 11.515 18.118 11.511 C 17.407 11.509 16.756 11.137 16.408 10.533 C 15.66 9.236 16.643 7.618 18.175 7.622 C 18.886 7.623 19.54 7.996 19.885 8.596 Z M 25.55 18.82 C 26.35 19.918 25.623 21.465 24.241 21.603 C 23.463 21.682 22.726 21.261 22.419 20.563 L 19.622 14.311 C 19.286 13.553 19.921 12.716 20.765 12.806 C 21.074 12.837 21.353 12.999 21.535 13.245 L 25.55 18.82 Z" style="transform-origin: 18.804px 15.996px;"/>
  </g>
</svg>